<svg width="96" height="96" xmlns="http://www.w3.org/2000/svg" xmlns:xlink="http://www.w3.org/1999/xlink" xml:space="preserve" overflow="hidden"><defs><clipPath id="clip0"><rect x="402" y="287" width="96" height="96"/></clipPath></defs><g clip-path="url(#clip0)" transform="translate(-402 -287)"><path d="M410 307 410 363 490 363 490 307 410 307ZM451.4 341.9C450.6 342.7 449.4 342.7 448.6 341.9L419 313 481.1 313 451.4 341.9ZM435.5 334.7 416 354.3 416 315.6 435.5 334.7ZM438.4 337.5 445.9 344.8C447.1 345.9 448.6 346.5 450.1 346.5 451.6 346.5 453.1 345.9 454.3 344.8L461.8 337.5 481.2 357 418.9 357 438.4 337.5ZM464.5 334.7 484 315.7 484 354.2 464.5 334.7Z" fill="#FFFFFF"/></g></svg>