<svg width="720" height="720" xmlns="http://www.w3.org/2000/svg" xmlns:xlink="http://www.w3.org/1999/xlink" xml:space="preserve" overflow="hidden"><defs><clipPath id="clip0"><rect x="242" y="-65" width="720" height="720"/></clipPath></defs><g clip-path="url(#clip0)" transform="translate(-242 65)"><path d="M590.55-25.3629 590.55 7.37631 531.994 7.37631 531.994 28.67 590.55 28.67 590.55 93.8821 613.441 93.8821 613.441 28.67 673.463 28.67 673.463 7.37631 613.441 7.37631 613.441-57.9688 590.55-57.9688Z" fill="#FFFFFF"/><path d="M399.174 57.6827 399.174 105.194 310.539 105.194 310.539 135.006 399.174 135.006 399.174 231.494 432.047 231.494 432.047 135.006 522.012 135.006 522.012 105.194 432.047 105.194 432.047 10.1711 399.174 10.1711Z" fill="#FFFFFF"/><path d="M770.618 57.6827 770.618 105.194 681.982 105.194 681.982 136.469 770.618 136.469 770.618 231.494 804.821 231.494 804.821 136.469 893.454 136.469 893.454 105.194 804.821 105.194 804.821 10.1711 770.618 10.1711Z" fill="#FFFFFF"/><path d="M582.034 219.515 582.034 272.75 483.417 272.75 483.417 312.409 582.034 312.409 582.034 418.877 621.96 418.877 621.96 312.409 720.575 312.409 720.575 272.75 621.96 272.75 621.96 166.281 582.034 166.281Z" fill="#FFFFFF"/><path d="M872.028 246.397 872.028 279.804 812.007 279.804 812.007 306.818 872.028 306.818 872.028 373.494 901.973 373.494 901.973 306.818 961.994 306.818 961.994 279.804 901.973 279.804 901.973 213.127 872.028 213.127Z" fill="#FFFFFF"/><path d="M300.558 249.325 300.558 281.267 242 281.267 242 303.89 300.558 303.89 300.558 367.773 323.449 367.773 323.449 303.89 383.47 301.761 383.47 281.267 323.449 281.267 323.449 217.386 300.558 217.386Z" fill="#FFFFFF"/><path d="M399.174 399.712 399.174 447.224 310.539 447.224 310.539 478.499 399.174 478.499 399.174 573.522 433.377 573.522 433.377 478.499 522.012 478.499 522.012 447.224 433.377 447.224 433.377 352.201 399.174 352.201Z" fill="#FFFFFF"/><path d="M770.618 399.712 770.618 447.224 681.982 447.224 681.982 477.036 770.618 477.036 770.618 573.522 804.821 573.522 804.821 477.036 893.454 477.036 893.454 447.224 804.821 447.224 804.821 352.201 770.618 352.201Z" fill="#FFFFFF"/><path d="M587.757 520.422 587.757 553.694 527.736 553.694 527.736 580.711 587.757 580.711 587.757 647.387 617.702 647.387 617.702 580.711 677.724 580.711 677.724 553.694 617.702 553.694 617.702 487.018 587.757 487.018Z" fill="#FFFFFF"/></g></svg>